					<svg xmlns="http://www.w3.org/2000/svg" width="135" height="46" fill="none">
						<g clip-path="url(#a)">
							<path d="M44.344 45.062v-7.068H39.55v7.068h4.794Z" fill="url(#b)" />
							<path d="M44.344 26.326H39.55v11.667h4.794V26.326Z" fill="url(#c)" />
							<path
								d="M35.194 30.381a6.766 6.766 0 0 0-.747-1.413c-.367-.529-.818-1-1.326-1.4a6.42 6.42 0 0 0-2.072-1.085c-.832-.286-1.847-.414-3.018-.414-1.522 0-2.82.257-3.92.757a5.896 5.896 0 0 0-2.537 2.099 5.426 5.426 0 0 0-.889 2.97h4.71v-.128c0-.286.084-.572.24-.814.197-.3.479-.543.803-.686.38-.186.874-.285 1.509-.285.677 0 1.198.085 1.593.285.338.157.634.386.888.657.212.286.381.614.466.957h4.723a13.92 13.92 0 0 0-.423-1.5Z"
								fill="url(#d)" />
							<path
								d="M36.109 39.279a5.562 5.562 0 0 1-.903 3.113c-.606.914-1.466 1.628-2.594 2.142s-2.51.771-4.146.771c-1.283 0-2.382-.157-3.285-.457a6.996 6.996 0 0 1-2.242-1.157 6.494 6.494 0 0 1-1.41-1.513 7.388 7.388 0 0 1-.775-1.528 10.567 10.567 0 0 1-.409-1.628h4.85c.113.428.296.828.536 1.185.282.357.635.628 1.03.814.465.243 1.1.357 1.903.357.987 0 1.678-.2 2.058-.571.381-.372.593-.786.593-1.228a1.171 1.171 0 0 0-.437-.971c-.297-.243-.804-.429-1.523-.543l-2.468-.4a13.197 13.197 0 0 1-3.031-.885 5.71 5.71 0 0 1-2.313-1.742c-.592-.757-.888-1.757-.888-2.985v-.157h4.71c.028.414.296.785.676.943.536.257 1.1.428 1.692.514l2.595.428c.987.157 1.96.457 2.862.9a5.555 5.555 0 0 1 2.115 1.77c.536.757.804 1.7.804 2.828Z"
								fill="url(#e)" />
							<path
								d="M6.148 26.341 0 45.077h4.991l.973-3.142 1.283-4.141 1.424-4.598.72-2.328 1.395-4.527H6.148Z"
								fill="url(#f)" />
							<path
								d="M18.769 45.077h-4.992l-.973-3.142H5.98l1.283-4.141h4.258l-2.129-6.926 1.41-4.527h1.819l6.148 18.736Z"
								fill="url(#g)" />
							<path
								d="m53.507 26.341-6.148 18.736h4.991l.973-3.142 1.283-4.141 1.425-4.598.719-2.328 1.395-4.527h-4.638Z"
								fill="url(#h)" />
							<path
								d="M66.128 45.077h-4.992l-.987-3.142h-6.81l1.283-4.141h4.258l-2.129-6.926 1.396-4.527h1.833l6.148 18.736Z"
								fill="url(#i)" />
							<path
								d="M30.659 1.294a10.666 10.666 0 0 0-3.427.514v5.413c.254-.315.55-.615.875-.857.676-.514 1.537-.771 2.552-.771 1.029 0 1.89.257 2.566.77.409.3.761.672 1.043 1.086v-5.57a10.348 10.348 0 0 0-3.61-.585Z"
								fill="url(#j)" />
							<path
								d="M40.273 10.89c0 1.2-.197 2.399-.606 3.527a9.103 9.103 0 0 1-1.805 3.098 8.83 8.83 0 0 1-3.017 2.2c-1.198.542-2.594.814-4.202.814-1.607 0-3.003-.272-4.201-.814a8.832 8.832 0 0 1-3.004-2.2 9.622 9.622 0 0 1-1.819-3.098A10.378 10.378 0 0 1 21 10.89c0-1.2.212-2.385.62-3.499a9.31 9.31 0 0 1 1.82-3.084 8.687 8.687 0 0 1 3.764-2.485V7.22a5.025 5.025 0 0 0-.663 1.128 6.494 6.494 0 0 0 0 5.083c.325.8.86 1.486 1.537 2 .677.514 1.537.77 2.552.77 1.015 0 1.89-.256 2.566-.77a4.76 4.76 0 0 0 1.537-2 6.618 6.618 0 0 0 0-5.083 4.274 4.274 0 0 0-.493-.9v-5.57c.197.072.395.144.578.244a8.981 8.981 0 0 1 3.017 2.185c.804.9 1.41 1.942 1.805 3.084a9.6 9.6 0 0 1 .634 3.499Z"
								fill="url(#k)" />
							<path d="M47.321 20.287V13.22h-4.794v7.068h4.794Z" fill="url(#l)" />
							<path d="M47.321 1.551h-4.794v11.667h4.794V1.551Z" fill="url(#m)" />
							<path d="M61.663 1.551v10.41l-.014-.014v7.926l.297.428h4.47V1.551h-4.752Z" fill="url(#n)" />
							<path d="M61.648 11.933v7.925l-6.486-9.453v9.882H50.41V1.55h4.427l6.81 10.382Z"
								fill="url(#o)" />
							<path d="M69.319 1.551v8.24h4.794V5.75h8.6V1.55H69.32Z" fill="url(#p)" />
							<path d="M81.585 9.806v4.027h-7.472v6.455h-4.794V9.792h4.794v.014h7.472Z" fill="url(#q)" />
							<path d="M85.59 1.551v18.736h4.795V1.55H85.59Z" fill="url(#r)" />
							<path d="M99.124 16.073h-8.727v4.198h8.727v-4.198Z" fill="url(#s)" />
							<path d="M97.87 8.79h-7.473v3.999h7.473V8.79Z" fill="url(#t)" />
							<path d="M98.998 1.551h-8.601V5.75h8.6V1.55Z" fill="url(#u)" />
							<path
								d="M116.088 5.621a5.786 5.786 0 0 0-.747-1.4 6.536 6.536 0 0 0-3.384-2.498c-.832-.286-1.847-.414-3.031-.414-1.523 0-2.82.257-3.92.756-1.1.5-1.946 1.214-2.538 2.1a5.345 5.345 0 0 0-.888 2.956h4.709v-.129c0-.286.085-.571.24-.814.197-.3.479-.543.803-.685.381-.186.875-.286 1.509-.286.677 0 1.199.1 1.593.286.339.157.635.385.889.657.211.285.38.6.479.942h4.723c-.112-.5-.253-1-.437-1.47Z"
								fill="url(#v)" />
							<path
								d="M117.017 14.518a5.558 5.558 0 0 1-.903 3.113c-.606.914-1.466 1.614-2.594 2.142-1.128.514-2.51.771-4.159.771-1.284 0-2.383-.157-3.286-.457a6.994 6.994 0 0 1-2.242-1.157 6.496 6.496 0 0 1-1.41-1.513 7.38 7.38 0 0 1-.775-1.528 10.638 10.638 0 0 1-.409-1.628h4.85c.113.428.296.828.536 1.185.282.357.635.628 1.029.814.466.243 1.1.357 1.904.357.987 0 1.678-.186 2.059-.571.394-.386.592-.785.592-1.228a1.171 1.171 0 0 0-.437-.971c-.296-.243-.804-.429-1.523-.543l-2.468-.4a13.205 13.205 0 0 1-3.031-.885 5.702 5.702 0 0 1-2.312-1.742c-.593-.757-.889-1.757-.889-2.985V7.15h4.738c.028.415.296.786.677.943a5.799 5.799 0 0 0 1.692.514l2.594.428c.987.157 1.96.457 2.862.9a5.557 5.557 0 0 1 2.115 1.77c.522.743.79 1.686.79 2.814Z"
								fill="url(#w)" />
							<path d="M123.631 1.551V5.75h.014v14.522h4.794V1.552h-4.808Z" fill="url(#x)" />
							<path d="M134.039 1.551h-5.598V5.75h5.598V1.55Z" fill="url(#y)" />
							<path d="M123.614 1.551h-5.583V5.75h5.583V1.55Z" fill="url(#z)" />
							<path
								d="M13.835 13.361a5.05 5.05 0 0 1-.648 1.4c-.31.414-.72.742-1.185.97-.536.286-1.255.429-2.129.429-1.043 0-1.917-.271-2.608-.814a4.893 4.893 0 0 1-1.565-2.07c-.043-.115-.1-.23-.127-.343H.257c.099.457.226.914.38 1.37a9.93 9.93 0 0 0 1.848 3.228 8.783 8.783 0 0 0 3.06 2.285c1.226.57 2.664.856 4.286.856 1.396 0 2.58-.171 3.567-.528a7.739 7.739 0 0 0 2.468-1.357 7.17 7.17 0 0 0 1.565-1.77 9.253 9.253 0 0 0 .874-1.757 12.18 12.18 0 0 0 .465-1.742c0-.057.014-.1.028-.143l-4.963-.014Z"
								fill="url(#A)" />
							<path
								d="M18.771 7.949h-4.935a5.05 5.05 0 0 0-.649-1.4 3.316 3.316 0 0 0-1.184-.985c-.536-.285-1.255-.428-2.129-.428-1.043 0-1.918.271-2.608.8A4.726 4.726 0 0 0 5.7 8.005a6.902 6.902 0 0 0-.126 4.927H.244a10.924 10.924 0 0 1 .38-5.94 9.798 9.798 0 0 1 1.848-3.2 8.96 8.96 0 0 1 3.06-2.284C6.757.937 8.195.652 9.817.652c1.396 0 2.58.185 3.567.528.902.3 1.734.757 2.467 1.357.607.5 1.142 1.1 1.565 1.756.353.557.649 1.143.875 1.771.211.6.366 1.228.479 1.885Z"
								fill="url(#B)" />
							<path
								d="M73.88 33.341v-7.195h3.14c.461 0 .853.08 1.177.243.325.162.57.38.74.651.174.273.262.57.262.895 0 .33-.062.603-.185.817-.117.214-.26.382-.428.505a1.72 1.72 0 0 1-.447.243v.069c.169.045.357.132.564.262.214.13.399.314.554.554.156.234.234.538.234.914 0 .337-.081.665-.243.982-.163.312-.419.568-.769.769-.35.194-.813.291-1.39.291H73.88Zm2.966-6.077h-1.644v1.877h1.644c.376 0 .648-.094.817-.282a.96.96 0 0 0 .252-.662.947.947 0 0 0-.252-.651c-.169-.188-.441-.282-.817-.282Zm.097 2.888h-1.74v2.071h1.74c.428 0 .739-.104.933-.311.195-.207.292-.45.292-.73a1.02 1.02 0 0 0-.292-.719c-.194-.207-.505-.311-.933-.311Zm3.846 5.085a3.71 3.71 0 0 1-.418-.019l-.155-.02v-1.06l.146.01c.097.013.21.02.34.02.33 0 .603-.055.817-.166.22-.103.405-.3.554-.593l-1.935-5.221h1.313l1.293 3.675 1.274-3.675h1.312l-1.886 5.027c-.26.687-.593 1.196-1.002 1.526-.408.331-.959.496-1.653.496Zm-7.269 6.701c0-.668.15-1.264.448-1.79a3.229 3.229 0 0 1 1.234-1.234 3.501 3.501 0 0 1 1.76-.447c.759 0 1.423.194 1.994.583.57.389.969.927 1.196 1.614h-1.566a1.615 1.615 0 0 0-.66-.73 1.9 1.9 0 0 0-.973-.242 2.01 2.01 0 0 0-1.06.282c-.305.181-.545.44-.72.778-.168.337-.252.732-.252 1.186 0 .447.084.843.252 1.186.175.337.415.6.72.788.311.181.664.272 1.06.272a1.9 1.9 0 0 0 .972-.243c.285-.168.506-.415.661-.739h1.566c-.227.694-.626 1.235-1.196 1.624-.564.382-1.229.574-1.994.574a3.562 3.562 0 0 1-1.76-.438 3.32 3.32 0 0 1-1.234-1.235c-.299-.525-.448-1.121-.448-1.789Zm10.187 3.49a2.87 2.87 0 0 1-1.4-.34 2.553 2.553 0 0 1-.983-.982c-.233-.421-.35-.907-.35-1.458 0-.551.12-1.037.36-1.459.246-.421.58-.745 1.001-.972.422-.233.892-.35 1.41-.35.52 0 .99.117 1.41.35.422.227.752.55.992.972.247.422.37.908.37 1.459 0 .55-.127 1.037-.38 1.458a2.583 2.583 0 0 1-1.01.983c-.422.226-.895.34-1.42.34Zm0-1.185c.246 0 .476-.059.69-.175a1.33 1.33 0 0 0 .525-.545c.13-.24.195-.532.195-.875 0-.512-.137-.905-.409-1.177a1.303 1.303 0 0 0-.982-.418c-.389 0-.716.14-.982.418-.26.273-.389.665-.389 1.177s.126.907.38 1.186c.258.272.583.408.972.408Zm4.499-4.93a.857.857 0 0 1-.603-.224.78.78 0 0 1-.233-.574c0-.227.077-.415.233-.564a.837.837 0 0 1 .603-.233c.24 0 .437.078.593.233.162.15.243.337.243.564a.764.764 0 0 1-.243.574.822.822 0 0 1-.593.224Zm.67.641v5.387h-1.36v-5.387h1.36Zm4.33-.077c.643 0 1.161.204 1.557.612.395.402.593.966.593 1.692v3.16h-1.362v-2.975c0-.428-.107-.755-.32-.982-.214-.234-.506-.35-.876-.35-.376 0-.674.116-.894.35-.214.227-.321.554-.321.982v2.975h-1.361v-5.387h1.36v.671c.182-.233.413-.415.691-.544a2.14 2.14 0 0 1 .934-.204Zm5.69 4.21 1.362-4.133h1.449l-1.994 5.387H98.06l-1.983-5.387h1.458l1.361 4.133Zm8.583-1.556c0 .195-.013.37-.039.525h-3.938c.032.39.168.694.408.914.24.22.535.33.885.33.506 0 .866-.216 1.079-.65h1.469a2.48 2.48 0 0 1-.895 1.283c-.441.33-.982.496-1.624.496a2.87 2.87 0 0 1-1.4-.34 2.513 2.513 0 0 1-.963-.983c-.226-.421-.34-.907-.34-1.458 0-.558.114-1.047.34-1.468.227-.422.545-.746.953-.973.409-.227.879-.34 1.41-.34.512 0 .969.11 1.371.33.409.22.723.535.944.944.226.402.34.865.34 1.39Zm-1.41-.389c-.007-.35-.133-.629-.379-.836a1.333 1.333 0 0 0-.905-.32 1.24 1.24 0 0 0-.855.31c-.227.201-.367.483-.418.846h2.557Zm4.465 3.287a2.89 2.89 0 0 1-1.186-.233 2.185 2.185 0 0 1-.837-.652 1.653 1.653 0 0 1-.33-.904h1.371c.026.207.126.379.301.515.182.136.405.204.671.204.26 0 .46-.052.603-.155a.469.469 0 0 0 .224-.399c0-.175-.091-.305-.273-.389-.175-.09-.457-.188-.845-.292a7.435 7.435 0 0 1-.992-.301 1.764 1.764 0 0 1-.662-.477c-.181-.213-.272-.502-.272-.865 0-.298.084-.57.253-.817.175-.246.421-.44.739-.583.324-.143.703-.214 1.138-.214.641 0 1.154.162 1.536.486.383.318.593.749.632 1.293h-1.303a.682.682 0 0 0-.272-.505c-.156-.13-.366-.195-.632-.195-.247 0-.438.046-.574.136a.436.436 0 0 0-.194.38c0 .181.09.32.272.418.181.09.463.184.846.282.389.097.71.197.963.301.252.104.469.266.651.486.188.214.285.5.292.856 0 .311-.088.59-.263.836-.168.247-.415.441-.739.584-.317.136-.69.204-1.118.204Zm4.822-4.356v2.606c0 .181.042.314.127.398.09.078.239.117.447.117h.632v1.147h-.856c-1.147 0-1.721-.557-1.721-1.672v-2.596h-.642v-1.119h.642v-1.332h1.371v1.332h1.206v1.119h-1.206Zm5.442 3.5c-.149.246-.392.454-.729.623a2.48 2.48 0 0 1-1.089.242c-.337 0-.642-.068-.914-.204a1.604 1.604 0 0 1-.642-.564 1.49 1.49 0 0 1-.233-.826c0-.5.185-.908.554-1.225.376-.318.937-.477 1.682-.477h1.371c-.013-.343-.113-.616-.301-.817-.181-.207-.434-.31-.758-.31-.286 0-.522.077-.71.233-.188.149-.308.36-.36.632h-1.361c.064-.39.204-.736.418-1.04.22-.312.505-.552.855-.72a2.682 2.682 0 0 1 1.196-.263c.454 0 .863.094 1.226.282.369.188.658.457.865.807.207.35.311.762.311 1.235v3.16h-1.381v-.768Zm-1.419-.233c.227 0 .447-.049.661-.146.22-.097.402-.243.545-.438.142-.194.213-.424.213-.69v-.039h-1.293c-.311 0-.544.062-.7.185a.6.6 0 0 0-.224.486c0 .194.069.35.205.467.142.116.34.175.593.175Zm6.206 1.089c-.441 0-.836-.078-1.187-.233a2.181 2.181 0 0 1-.836-.652 1.653 1.653 0 0 1-.33-.904h1.371c.026.207.126.379.301.515.182.136.405.204.671.204.259 0 .46-.052.603-.155a.469.469 0 0 0 .224-.399c0-.175-.091-.305-.273-.389-.175-.09-.457-.188-.846-.292a7.415 7.415 0 0 1-.991-.301 1.764 1.764 0 0 1-.662-.477c-.181-.213-.272-.502-.272-.865 0-.298.084-.57.253-.817.175-.246.421-.44.739-.583.324-.143.703-.214 1.138-.214.641 0 1.153.162 1.536.486.382.318.593.749.632 1.293h-1.303a.682.682 0 0 0-.272-.505c-.156-.13-.367-.195-.632-.195-.247 0-.438.046-.574.136a.437.437 0 0 0-.195.38c0 .181.091.32.273.418.181.09.463.184.846.282.389.097.71.197.962.301.253.104.47.266.652.486.188.214.285.5.292.856 0 .311-.088.59-.263.836-.169.247-.415.441-.739.584-.318.136-.69.204-1.118.204Zm3.927-6.116a.856.856 0 0 1-.602-.224.779.779 0 0 1-.234-.574c0-.227.078-.415.234-.564a.836.836 0 0 1 .602-.233c.24 0 .438.078.594.233.162.15.243.337.243.564a.764.764 0 0 1-.243.574.825.825 0 0 1-.594.224Zm.671.641v5.387h-1.361v-5.387h1.361Z"
								fill="#2458F1" />
						</g>
						<defs>
							<linearGradient id="p" x1="69.324" y1="5.666" x2="82.708" y2="5.666"
								gradientUnits="userSpaceOnUse">
								<stop offset=".02" stop-color="#004ED0" stop-opacity="0" />
								<stop offset=".35" stop-color="#004ED0" stop-opacity=".38" />
								<stop offset=".66" stop-color="#004ED0" stop-opacity=".72" />
								<stop offset=".89" stop-color="#004ED0" stop-opacity=".92" />
								<stop offset="1" stop-color="#004ED0" />
							</linearGradient>
							<linearGradient id="b" x1="44.339" y1="41.531" x2="39.55" y2="41.531"
								gradientUnits="userSpaceOnUse">
								<stop stop-color="#004ED0" />
								<stop offset=".09" stop-color="#004ED0" stop-opacity=".95" />
								<stop offset=".23" stop-color="#004ED0" stop-opacity=".82" />
								<stop offset=".41" stop-color="#004ED0" stop-opacity=".61" />
								<stop offset=".63" stop-color="#004ED0" stop-opacity=".32" />
								<stop offset=".84" stop-color="#004ED0" stop-opacity="0" />
							</linearGradient>
							<linearGradient id="d" x1="20.694" y1="28.978" x2="35.636" y2="28.978"
								gradientUnits="userSpaceOnUse">
								<stop offset=".02" stop-color="#004ED0" stop-opacity="0" />
								<stop offset=".35" stop-color="#004ED0" stop-opacity=".38" />
								<stop offset=".66" stop-color="#004ED0" stop-opacity=".72" />
								<stop offset=".89" stop-color="#004ED0" stop-opacity=".92" />
								<stop offset="1" stop-color="#004ED0" />
							</linearGradient>
							<linearGradient id="e" x1="20.345" y1="38.6" x2="36.573" y2="38.6"
								gradientUnits="userSpaceOnUse">
								<stop stop-color="#004ED0" />
								<stop offset="1" stop-color="#00defc" />
							</linearGradient>
							<linearGradient id="f" x1="1.484" y1="45.698" x2="9.788" y2="25.923"
								gradientUnits="userSpaceOnUse">
								<stop stop-color="#004ED0" />
								<stop offset=".09" stop-color="#004ED0" stop-opacity=".95" />
								<stop offset=".23" stop-color="#004ED0" stop-opacity=".82" />
								<stop offset=".41" stop-color="#004ED0" stop-opacity=".61" />
								<stop offset=".63" stop-color="#004ED0" stop-opacity=".32" />
								<stop offset=".84" stop-color="#004ED0" stop-opacity="0" />
							</linearGradient>
							<linearGradient id="g" x1="5.98" y1="35.709" x2="19.145" y2="35.709"
								gradientUnits="userSpaceOnUse">
								<stop stop-color="#004ED0" />
								<stop offset="1" stop-color="#00defc" />
							</linearGradient>
							<linearGradient id="h" x1="48.849" y1="45.697" x2="57.153" y2="25.923"
								gradientUnits="userSpaceOnUse">
								<stop stop-color="#004ED0" />
								<stop offset=".09" stop-color="#004ED0" stop-opacity=".95" />
								<stop offset=".23" stop-color="#004ED0" stop-opacity=".82" />
								<stop offset=".41" stop-color="#004ED0" stop-opacity=".61" />
								<stop offset=".63" stop-color="#004ED0" stop-opacity=".32" />
								<stop offset=".84" stop-color="#004ED0" stop-opacity="0" />
							</linearGradient>
							<linearGradient id="i" x1="53.339" y1="35.709" x2="66.504" y2="35.709"
								gradientUnits="userSpaceOnUse">
								<stop stop-color="#004ED0" />
								<stop offset="1" stop-color="#00defc" />
							</linearGradient>
							<linearGradient id="j" x1="30.745" y1="7.439" x2="30.745" y2="1.294"
								gradientUnits="userSpaceOnUse">
								<stop stop-color="#004ED0" />
								<stop offset=".09" stop-color="#004ED0" stop-opacity=".95" />
								<stop offset=".23" stop-color="#004ED0" stop-opacity=".82" />
								<stop offset=".41" stop-color="#004ED0" stop-opacity=".61" />
								<stop offset=".63" stop-color="#004ED0" stop-opacity=".32" />
								<stop offset=".84" stop-color="#004ED0" stop-opacity="0" />
							</linearGradient>
							<linearGradient id="k" x1="20.999" y1="11.175" x2="40.84" y2="11.175"
								gradientUnits="userSpaceOnUse">
								<stop stop-color="#004ED0" />
								<stop offset="1" stop-color="#00defc" />
							</linearGradient>
							<linearGradient id="l" x1="47.317" y1="16.757" x2="42.526" y2="16.757"
								gradientUnits="userSpaceOnUse">
								<stop stop-color="#004ED0" />
								<stop offset=".09" stop-color="#004ED0" stop-opacity=".95" />
								<stop offset=".23" stop-color="#004ED0" stop-opacity=".82" />
								<stop offset=".41" stop-color="#004ED0" stop-opacity=".61" />
								<stop offset=".63" stop-color="#004ED0" stop-opacity=".32" />
								<stop offset=".84" stop-color="#004ED0" stop-opacity="0" />
							</linearGradient>
							<linearGradient id="m" x1="42.527" y1="7.385" x2="47.462" y2="7.385"
								gradientUnits="userSpaceOnUse">
								<stop stop-color="#004ED0" />
								<stop offset="1" stop-color="#00defc" />
							</linearGradient>
							<linearGradient id="n" x1="64.033" y1="1.547" x2="64.033" y2="20.304"
								gradientUnits="userSpaceOnUse">
								<stop stop-color="#004ED0" />
								<stop offset=".09" stop-color="#004ED0" stop-opacity=".95" />
								<stop offset=".23" stop-color="#004ED0" stop-opacity=".82" />
								<stop offset=".41" stop-color="#004ED0" stop-opacity=".61" />
								<stop offset=".63" stop-color="#004ED0" stop-opacity=".32" />
								<stop offset=".84" stop-color="#004ED0" stop-opacity="0" />
							</linearGradient>
							<linearGradient id="o" x1="50.41" y1="10.919" x2="61.978" y2="10.919"
								gradientUnits="userSpaceOnUse">
								<stop stop-color="#004ED0" />
								<stop offset="1" stop-color="#00defc" />
							</linearGradient>
							<linearGradient id="c" x1="39.55" y1="32.16" x2="44.485" y2="32.16"
								gradientUnits="userSpaceOnUse">
								<stop stop-color="#004ED0" />
								<stop offset="1" stop-color="#00defc" />
							</linearGradient>
							<linearGradient id="q" x1="69.319" y1="15.04" x2="81.946" y2="15.04"
								gradientUnits="userSpaceOnUse">
								<stop stop-color="#004ED0" />
								<stop offset="1" stop-color="#00defc" />
							</linearGradient>
							<linearGradient id="r" x1="87.983" y1="20.29" x2="87.983" y2="1.547"
								gradientUnits="userSpaceOnUse">
								<stop stop-color="#004ED0" />
								<stop offset=".09" stop-color="#004ED0" stop-opacity=".95" />
								<stop offset=".23" stop-color="#004ED0" stop-opacity=".82" />
								<stop offset=".41" stop-color="#004ED0" stop-opacity=".61" />
								<stop offset=".63" stop-color="#004ED0" stop-opacity=".32" />
								<stop offset=".84" stop-color="#004ED0" stop-opacity="0" />
							</linearGradient>
							<linearGradient id="s" x1="90.397" y1="18.172" x2="99.381" y2="18.172"
								gradientUnits="userSpaceOnUse">
								<stop stop-color="#004ED0" />
								<stop offset="1" stop-color="#00defc" />
							</linearGradient>
							<linearGradient id="t" x1="90.397" y1="10.79" x2="98.089" y2="10.79"
								gradientUnits="userSpaceOnUse">
								<stop stop-color="#004ED0" />
								<stop offset="1" stop-color="#00defc" />
							</linearGradient>
							<linearGradient id="u" x1="90.397" y1="3.65" x2="99.251" y2="3.65"
								gradientUnits="userSpaceOnUse">
								<stop stop-color="#004ED0" />
								<stop offset="1" stop-color="#00defc" />
							</linearGradient>
							<linearGradient id="v" x1="101.568" y1="4.215" x2="116.525" y2="4.215"
								gradientUnits="userSpaceOnUse">
								<stop offset=".02" stop-color="#004ED0" stop-opacity="0" />
								<stop offset=".35" stop-color="#004ED0" stop-opacity=".38" />
								<stop offset=".66" stop-color="#004ED0" stop-opacity=".72" />
								<stop offset=".89" stop-color="#004ED0" stop-opacity=".92" />
								<stop offset="1" stop-color="#004ED0" />
							</linearGradient>
							<linearGradient id="w" x1="101.239" y1="13.847" x2="117.481" y2="13.847"
								gradientUnits="userSpaceOnUse">
								<stop stop-color="#004ED0" />
								<stop offset="1" stop-color="#00defc" />
							</linearGradient>
							<linearGradient id="x" x1="126.032" y1="20.275" x2="126.032" y2="1.547"
								gradientUnits="userSpaceOnUse">
								<stop stop-color="#004ED0" />
								<stop offset=".09" stop-color="#004ED0" stop-opacity=".95" />
								<stop offset=".23" stop-color="#004ED0" stop-opacity=".82" />
								<stop offset=".41" stop-color="#004ED0" stop-opacity=".61" />
								<stop offset=".63" stop-color="#004ED0" stop-opacity=".32" />
								<stop offset=".84" stop-color="#004ED0" stop-opacity="0" />
							</linearGradient>
							<linearGradient id="y" x1="128.441" y1="3.65" x2="134.203" y2="3.65"
								gradientUnits="userSpaceOnUse">
								<stop stop-color="#004ED0" />
								<stop offset="1" stop-color="#00defc" />
							</linearGradient>
							<linearGradient id="z" x1="118.031" y1="3.65" x2="123.779" y2="3.65"
								gradientUnits="userSpaceOnUse">
								<stop stop-color="#004ED0" />
								<stop offset="1" stop-color="#00defc" />
							</linearGradient>
							<linearGradient id="A" x1="18.787" y1="16.785" x2=".25" y2="16.785"
								gradientUnits="userSpaceOnUse">
								<stop stop-color="#004ED0" />
								<stop offset=".09" stop-color="#004ED0" stop-opacity=".95" />
								<stop offset=".23" stop-color="#004ED0" stop-opacity=".82" />
								<stop offset=".41" stop-color="#004ED0" stop-opacity=".61" />
								<stop offset=".63" stop-color="#004ED0" stop-opacity=".32" />
								<stop offset=".84" stop-color="#004ED0" stop-opacity="0" />
							</linearGradient>
							<linearGradient id="B" x1="0" y1="6.792" x2="19.323" y2="6.792"
								gradientUnits="userSpaceOnUse">
								<stop stop-color="#004ED0" />
								<stop offset="1" stop-color="#00defc" />
							</linearGradient>
							<clipPath id="a">
								<path fill="#fff" d="M0 0h135v46H0z" />
							</clipPath>
						</defs>
					</svg>
